<?xml version="1.0" encoding="utf-8"?>
<!-- Generator: Adobe Illustrator 16.0.0, SVG Export Plug-In . SVG Version: 6.00 Build 0)  -->
<!DOCTYPE svg PUBLIC "-//W3C//DTD SVG 1.1//EN" "http://www.w3.org/Graphics/SVG/1.1/DTD/svg11.dtd">
<svg version="1.1" id="Livello_1" xmlns="http://www.w3.org/2000/svg" xmlns:xlink="http://www.w3.org/1999/xlink" x="0px" y="0px"
	 width="800px" height="800px" viewBox="0 0 800 800" enable-background="new 0 0 800 800" xml:space="preserve">
<g>
	<polygon fill="#116AB1" points="447.006,232.36 483.831,164.599 483.465,164.599 483.097,164.228 423.136,164.228 416.692,176.7 	
		"/>
	<path fill="#116AB1" d="M306.316,345.978l29.655-52.228l-79.609-129.522h-59.958l-0.369,0.372
		C209.901,190.398,295.971,329.317,306.316,345.978z"/>
	<polygon fill="#414142" points="408.766,182.193 408.758,182.162 343.019,302.533 343.931,302.533 	"/>
	<path fill="#414142" d="M377.65,347.663c1.558-1.39,11.818-19.742,30.776-55.066h0.379c19.046,35.325,29.301,53.677,30.779,55.066
		h69.028l0.367-0.367l105.447-182.697h-0.369l-0.491-0.372h-59.965l-79.07,138.305h-1.233l-64.533-120.34l-64.835,120.34h-0.912
		l-24.653,45.13H377.65z"/>
</g>
<text transform="matrix(1 0 0 1 28.7451 511.6689)"><tspan x="0" y="0" fill="#1C87C5" font-family="'Haettenschweiler'" font-size="191.5523" letter-spacing="19">WPS 231</tspan><tspan x="625.22" y="0" fill="#3B3635" font-family="'Haettenschweiler'" font-size="65.4431" letter-spacing="6">s.r.l.</tspan></text>
<text transform="matrix(1 0 0 1 37.1782 544.0225)"><tspan x="0" y="0" fill="#221F1F" font-family="'Arial-Black'" font-size="13.0279">CENTRO FORMAZIONE E CONSULENZE PER LA GESTIONE INTEGRATA DELLA SICUREZZASUL LAVORO,</tspan><tspan x="85.766" y="15.634" fill="#221F1F" font-family="'Arial-Black'" font-size="13.0279">QUALITà E AMBIENTE MODELLI DI ORGANIZZAZION, GESTIONE E CONTROLLO </tspan><tspan x="270.32" y="31.267" fill="#221F1F" font-family="'Arial-Black'" font-size="13.0279">CONSULENZA DIREZIONALE</tspan></text>
</svg>
