<?xml version="1.0" encoding="utf-8"?>
<!-- Generator: Adobe Illustrator 16.0.0, SVG Export Plug-In . SVG Version: 6.00 Build 0)  -->
<!DOCTYPE svg PUBLIC "-//W3C//DTD SVG 1.1//EN" "http://www.w3.org/Graphics/SVG/1.1/DTD/svg11.dtd">
<svg version="1.1" id="Livello_1" xmlns="http://www.w3.org/2000/svg" xmlns:xlink="http://www.w3.org/1999/xlink" x="0px" y="0px"
	 width="800px" height="800px" viewBox="0 0 800 800" enable-background="new 0 0 800 800" xml:space="preserve">
<g>
	<path opacity="0.1" fill="#4D4D4F" d="M480.12,406.136c-111.119-0.333-245.288-19.48-247.126-30.843
		c-1.525-9.429,46.657-11.902,91.249-12.318c-64.262-1.208-127.478,3.843-113.04,15.724
		c37.021,18.766,185.157,30.891,268.917,31.677V406.136z"/>
	<path fill="#3EC5F1" d="M541.507,259.178C541.766,257.631,541.511,258.422,541.507,259.178L541.507,259.178z"/>
	<path fill="#3EC5F1" d="M541.507,259.178c23.979,20.316,55.596,73.77,22.471,104.867
		C453.742,444.81,235.343,303.31,232.994,227.854c-1.525-49.003,46.657-61.857,91.249-64.01
		c-64.262-6.29-127.478,19.965-113.04,81.714C250.23,348.384,412.777,412.847,493.158,410.35
		C656.574,401.499,575.312,284.374,541.507,259.178z"/>
	<path fill="#0679A7" d="M267.016,272.59c-22.642-50.652,1.374-72.093,35.559-80.863l-4.334-17.746
		C207.172,192.51,258.522,273.803,267.016,272.59z"/>
	<path fill="#0679A7" d="M519.48,246.739l-2.871,18.948c20.867,20.566,33.478,43.664,30.804,67.343
		c-6.072,30.174-44.229,42.833-79.377,44.989C513.154,386.206,631.638,348.331,519.48,246.739z"/>
	<g>
		<polygon fill="#0679A7" points="482.298,177.414 461.28,273.457 438.747,177.414 399.29,177.414 378.478,272.601 358.542,177.414 
			313.692,177.414 349.659,330.011 393.005,330.011 417.067,233.118 440.914,330.011 487.282,330.011 523.465,177.414 		"/>
	</g>
</g>
<path fill="#3EC5F1" d="M651.012,577.55C651.271,576.001,651.016,576.791,651.012,577.55L651.012,577.55z"/>
<text transform="matrix(1 0 0 1 15.1792 534.418)"><tspan x="0" y="0" fill="#3EC5F1" font-family="'Arial-Black'" font-size="138.7712">WPS </tspan><tspan x="385.483" y="0" fill="#0679A7" font-family="'Arial-Black'" font-size="138.7712">231</tspan></text>
<text transform="matrix(1 0 0 1 669.8896 537.1699)" fill="#4D4D4F" font-family="'Arial-Black'" font-size="49.1696">s.r.l.</text>
<text transform="matrix(1 0 0 1 32.4775 568.0586)"><tspan x="0" y="0" fill="#231F20" font-family="'Arial-Black'" font-size="13.0699">CENTRO FORMAZIONE E CONSULENZE PER LA GESTIONE INTEGRATA DELLA SICUREZZASUL LAVORO,</tspan><tspan x="86.042" y="15.684" fill="#231F20" font-family="'Arial-Black'" font-size="13.0699">QUALITà E AMBIENTE MODELLI DI ORGANIZZAZION, GESTIONE E CONTROLLO </tspan><tspan x="271.191" y="31.368" fill="#231F20" font-family="'Arial-Black'" font-size="13.0699">CONSULENZA DIREZIONALE</tspan></text>
</svg>
