<?xml version="1.0" encoding="utf-8"?>
<!-- Generator: Adobe Illustrator 16.0.0, SVG Export Plug-In . SVG Version: 6.00 Build 0)  -->
<!DOCTYPE svg PUBLIC "-//W3C//DTD SVG 1.1//EN" "http://www.w3.org/Graphics/SVG/1.1/DTD/svg11.dtd">
<svg version="1.1" id="Livello_1" xmlns="http://www.w3.org/2000/svg" xmlns:xlink="http://www.w3.org/1999/xlink" x="0px" y="0px"
	 width="800px" height="800px" viewBox="0 0 800 800" enable-background="new 0 0 800 800" xml:space="preserve">
<g>
	<linearGradient id="SVGID_1_" gradientUnits="userSpaceOnUse" x1="85.8828" y1="280.8799" x2="108.7535" y2="463.8459">
		<stop  offset="0" style="stop-color:#59C8E7"/>
		<stop  offset="1" style="stop-color:#0371AE"/>
	</linearGradient>
	<path fill="url(#SVGID_1_)" d="M72.328,414.729c-7.508,3.494-15.346,5.41-23.139,5.885c16.656,7.916,42.31,8.941,60.335,0.551
		c32.102-14.942,49.686-51.922,34.742-84.023c-11.447-24.593-43.897-45.198-71.441-38.429c13.007,6.182,24.019,16.759,30.571,30.836
		C118.339,361.648,104.429,399.785,72.328,414.729z"/>
	<g>
		<linearGradient id="SVGID_2_" gradientUnits="userSpaceOnUse" x1="165.6924" y1="295.8232" x2="109.5156" y2="517.3196">
			<stop  offset="0" style="stop-color:#59C8E7"/>
			<stop  offset="1" style="stop-color:#0371AE"/>
		</linearGradient>
		<path fill="url(#SVGID_2_)" d="M159.787,290.955c0.211,0.297,0.424,0.592,0.632,0.892c31.435,15.602,51.735,49.286,48.542,86.367
			c-4.168,48.4-46.782,84.258-95.183,80.09c-27.178-2.34-50.397-16.803-64.801-37.604c-0.114-0.057-0.227-0.115-0.34-0.173
			c13.765,29.06,42.163,50.236,76.509,53.193c51.438,4.43,96.727-33.679,101.155-85.115
			C230.178,343.594,201.483,303.293,159.787,290.955z"/>
		
			<linearGradient id="SVGID_3_" gradientUnits="userSpaceOnUse" x1="-572.4824" y1="1282.8145" x2="-385.5201" y2="1282.8145" gradientTransform="matrix(0.9963 0.0858 -0.0858 0.9963 720.9604 -862.1904)">
			<stop  offset="0" style="stop-color:#59C8E7"/>
			<stop  offset="1" style="stop-color:#0371AE"/>
		</linearGradient>
		<path fill="url(#SVGID_3_)" d="M80.525,429.515c-11.319-0.975-21.952-4.053-31.548-8.815
			c14.403,20.802,37.623,35.265,64.801,37.604c48.4,4.168,91.015-31.689,95.183-80.09c3.193-37.081-17.107-70.766-48.542-86.367
			c11.247,16.245,17.116,36.354,15.289,57.577C171.541,397.824,128.926,433.683,80.525,429.515z"/>
		<linearGradient id="SVGID_4_" gradientUnits="userSpaceOnUse" x1="164.8066" y1="287.1743" x2="112.2413" y2="456.9078">
			<stop  offset="0" style="stop-color:#59C8E7"/>
			<stop  offset="1" style="stop-color:#0371AE"/>
		</linearGradient>
		<path fill="url(#SVGID_4_)" d="M80.525,429.515c-11.319-0.975-21.952-4.053-31.548-8.815
			c14.403,20.802,37.623,35.265,64.801,37.604c48.4,4.168,91.015-31.689,95.183-80.09c3.193-37.081-17.107-70.766-48.542-86.367
			c11.247,16.245,17.116,36.354,15.289,57.577C171.541,397.824,128.926,433.683,80.525,429.515z"/>
	</g>
	
		<linearGradient id="SVGID_5_" gradientUnits="userSpaceOnUse" x1="-224.7812" y1="906.8408" x2="-317.3756" y2="1061.9784" gradientTransform="matrix(0.9042 0.4271 -0.6985 1.4788 948.2046 -967.4287)">
		<stop  offset="0" style="stop-color:#F7EA36"/>
		<stop  offset="0.3184" style="stop-color:#F1B13B"/>
		<stop  offset="0.6486" style="stop-color:#ED7B39"/>
		<stop  offset="0.8841" style="stop-color:#EC5537"/>
		<stop  offset="1" style="stop-color:#EC4237"/>
	</linearGradient>
	<path fill="url(#SVGID_5_)" d="M47.326,340.968c-0.082,0.141-0.155,0.288-0.236,0.429c0.058-0.089,0.118-0.178,0.177-0.267
		C47.287,341.075,47.305,341.021,47.326,340.968z"/>
	
		<linearGradient id="SVGID_6_" gradientUnits="userSpaceOnUse" x1="1284.2188" y1="1042.6367" x2="1213.8187" y2="1160.5886" gradientTransform="matrix(0 1 -1.2789 0 1546.9512 -802.8779)">
		<stop  offset="0" style="stop-color:#8ECEB1"/>
		<stop  offset="0.183" style="stop-color:#8CCCB4"/>
		<stop  offset="0.3956" style="stop-color:#83C8BB"/>
		<stop  offset="0.6229" style="stop-color:#74C2C8"/>
		<stop  offset="0.8591" style="stop-color:#5CBBD8"/>
		<stop  offset="1" style="stop-color:#45B6E6"/>
	</linearGradient>
	<path fill="url(#SVGID_6_)" d="M228.695,446.41c-28.947,45.022-87.493,62.688-137.194,39.21
		C37.457,460.09,14.34,395.581,39.87,341.536c1.161-2.46,2.414-4.848,3.733-7.179c-10.835,16.854-17.121,36.911-17.121,58.437
		C26.482,452.555,74.928,501,134.688,501C174.939,501,210.056,479.021,228.695,446.41z"/>
	
		<linearGradient id="SVGID_7_" gradientUnits="userSpaceOnUse" x1="-141.4004" y1="943.3057" x2="-252.3514" y2="1129.1989" gradientTransform="matrix(0.9042 0.4271 -0.6985 1.4788 948.2046 -967.4287)">
		<stop  offset="0" style="stop-color:#F7EA36"/>
		<stop  offset="0.3184" style="stop-color:#F1B13B"/>
		<stop  offset="0.6486" style="stop-color:#ED7B39"/>
		<stop  offset="0.8841" style="stop-color:#EC5537"/>
		<stop  offset="1" style="stop-color:#EC4237"/>
	</linearGradient>
	<path fill="url(#SVGID_7_)" d="M91.501,485.62c49.701,23.478,108.247,5.812,137.194-39.21c2.822-4.938,5.263-10.123,7.291-15.51
		c-28.987,44.892-87.44,62.481-137.076,39.035c-51.342-24.253-74.766-83.681-55.095-135.899c-0.069,0.108-0.142,0.214-0.212,0.321
		c-1.319,2.331-2.572,4.719-3.733,7.179C14.34,395.581,37.457,460.09,91.501,485.62z"/>
	
		<linearGradient id="SVGID_8_" gradientUnits="userSpaceOnUse" x1="1282.6299" y1="1039.54" x2="1207.3594" y2="1165.6522" gradientTransform="matrix(0 1 -1.2789 0 1546.9512 -802.8779)">
		<stop  offset="0" style="stop-color:#59C8E7"/>
		<stop  offset="1" style="stop-color:#0371AE"/>
	</linearGradient>
	<path fill="url(#SVGID_8_)" d="M91.501,485.62c49.701,23.478,108.247,5.812,137.194-39.21c2.822-4.938,5.263-10.123,7.291-15.51
		c-28.987,44.892-87.44,62.481-137.076,39.035c-51.342-24.253-74.766-83.681-55.095-135.899c-0.069,0.108-0.142,0.214-0.212,0.321
		c-1.319,2.331-2.572,4.719-3.733,7.179C14.34,395.581,37.457,460.09,91.501,485.62z"/>
	<linearGradient id="SVGID_9_" gradientUnits="userSpaceOnUse" x1="100.936" y1="283.8755" x2="100.936" y2="421.9113">
		<stop  offset="0" style="stop-color:#8ECEB1"/>
		<stop  offset="0.183" style="stop-color:#8CCCB4"/>
		<stop  offset="0.3956" style="stop-color:#83C8BB"/>
		<stop  offset="0.6229" style="stop-color:#74C2C8"/>
		<stop  offset="0.8591" style="stop-color:#5CBBD8"/>
		<stop  offset="1" style="stop-color:#45B6E6"/>
	</linearGradient>
	<path fill="url(#SVGID_9_)" d="M134.827,364.165c-3.212,34.365-35.404,60.559-69.733,59.101c-4.412-0.188-8.723-0.46-12.879-1.332
		c16.618,6.682,40.343,7.129,57.31-0.769c32.102-14.942,49.686-51.922,34.742-84.023c-11.447-24.594-43.897-45.199-71.441-38.43
		c0.033,0.017,0.066,0.035,0.101,0.052C106.841,297.407,137.645,334.036,134.827,364.165z"/>
</g>
<g>
	<text transform="matrix(1 0 0 1 248.2754 414.2178)" fill="#0679A7" font-family="'Arial-Black'" font-size="95.1417">WPS 231</text>
	<text transform="matrix(1 0 0 1 697.1455 416.1045)" fill="#414142" font-family="'Arial-Black'" font-size="33.7107">s.r.l.</text>
	<text transform="matrix(1 0 0 1 259.3809 438.7881)"><tspan x="0" y="0" fill="#231F20" font-family="'Arial-Black'" font-size="8.9608">CENTRO FORMAZIONE E CONSULENZE PER LA GESTIONE INTEGRATA DELLA SICUREZZASUL LAVORO,</tspan><tspan x="58.99" y="10.753" fill="#231F20" font-family="'Arial-Black'" font-size="8.9608">QUALITà E AMBIENTE MODELLI DI ORGANIZZAZION, GESTIONE E CONTROLLO </tspan><tspan x="185.929" y="21.506" fill="#231F20" font-family="'Arial-Black'" font-size="8.9608">CONSULENZA DIREZIONALE</tspan></text>
</g>
</svg>
