<?xml version="1.0" encoding="UTF-8" standalone="no"?>
<svg
   xmlns:dc="http://purl.org/dc/elements/1.1/"
   xmlns:cc="http://creativecommons.org/ns#"
   xmlns:rdf="http://www.w3.org/1999/02/22-rdf-syntax-ns#"
   xmlns:svg="http://www.w3.org/2000/svg"
   xmlns="http://www.w3.org/2000/svg"
   viewBox="0 0 793.70667 1122.52"
   height="1122.52"
   width="793.70667"
   xml:space="preserve"
   id="svg2"
   version="1.1"><metadata
     id="metadata8"><rdf:RDF><cc:Work
         rdf:about=""><dc:format>image/svg+xml</dc:format><dc:type
           rdf:resource="http://purl.org/dc/dcmitype/StillImage" /></cc:Work></rdf:RDF></metadata><defs
     id="defs6"><clipPath
       id="clipPath36"
       clipPathUnits="userSpaceOnUse"><path
         id="path34"
         d="M 0,841.89 H 595.28 V 0 H 0 Z" /></clipPath><clipPath
       id="clipPath92"
       clipPathUnits="userSpaceOnUse"><path
         id="path90"
         d="M 0,841.89 H 595.28 V 0 H 0 Z" /></clipPath></defs><g
     transform="matrix(1.3333333,0,0,-1.3333333,0,1122.52)"
     id="g10"><g
       transform="translate(551.4951,179.9004)"
       id="g12"><path
         id="path14"
         style="fill:#ffffff;fill-opacity:1;fill-rule:nonzero;stroke:none"
         d="m 0,0 -410.43,-80.694 -109.869,558.813 410.43,80.695 z" /></g><g
       transform="translate(551.4951,179.9004)"
       id="g16"><path
         id="path18"
         style="fill:none;stroke:#231f20;stroke-width:2.83500004;stroke-linecap:butt;stroke-linejoin:miter;stroke-miterlimit:10;stroke-dasharray:none;stroke-opacity:1"
         d="m 0,0 -410.43,-80.694 -109.869,558.813 410.43,80.695 z" /></g><g
       transform="translate(513.0068,118.6436)"
       id="g20"><path
         id="path22"
         style="fill:#ffffff;fill-opacity:1;fill-rule:nonzero;stroke:none"
         d="m 0,0 -416.312,40.614 55.297,566.822 416.311,-40.614 z" /></g><g
       transform="translate(513.0068,118.6436)"
       id="g24"><path
         id="path26"
         style="fill:none;stroke:#231f20;stroke-width:2.83500004;stroke-linecap:butt;stroke-linejoin:miter;stroke-miterlimit:10;stroke-dasharray:none;stroke-opacity:1"
         d="m 0,0 -416.312,40.614 55.297,566.822 416.311,-40.614 z" /></g><path
       id="path28"
       style="fill:#ffffff;fill-opacity:1;fill-rule:nonzero;stroke:#231f20;stroke-width:2.83500004;stroke-linecap:butt;stroke-linejoin:miter;stroke-miterlimit:10;stroke-dasharray:none;stroke-opacity:1"
       d="M 499.641,132.481 H 81.353 v 569.513 h 418.288 z" /><g
       id="g30"><g
         clip-path="url(#clipPath36)"
         id="g32"><g
           transform="translate(396.9492,256.2812)"
           id="g38"><path
             id="path40"
             style="fill:#231f20;fill-opacity:1;fill-rule:nonzero;stroke:none"
             d="m 0,0 v 1.367 c 0.627,0.38 1.05,1.064 1.05,1.853 0,1.197 -0.97,2.168 -2.167,2.168 -1.2,0 -2.171,-0.971 -2.171,-2.168 0,-0.789 0.423,-1.473 1.051,-1.853 V 0 c -6.065,-0.084 -10.821,-0.859 -10.899,-1.807 h -0.006 V -84.669 H 10.903 V -1.807 H 10.897 C 10.818,-0.859 6.062,-0.084 0,0" /></g><g
           transform="translate(199.1626,264.667)"
           id="g42"><path
             id="path44"
             style="fill:#231f20;fill-opacity:1;fill-rule:nonzero;stroke:none"
             d="M 0,0 H -0.745 V -0.949 H 0 v -16.28 h -0.541 v -1.085 H 0 v -15.652 c 2.444,-0.145 4.719,-0.322 6.782,-0.524 v 16.176 h 0.545 v 1.085 H 6.782 v 16.28 H 7.53 V 0 H 6.782 V 1.355 H 8.953 V 4.341 H 6.782 V 5.698 H 0 V 4.341 H -2.17 V 1.355 H 0 Z" /></g><g
           transform="translate(184.5322,230.0889)"
           id="g46"><path
             id="path48"
             style="fill:#231f20;fill-opacity:1;fill-rule:nonzero;stroke:none"
             d="m 0,0 v 2.669 c 1.849,0.741 3.093,2.074 3.093,3.615 0,2.343 -2.856,4.238 -6.383,4.238 -3.525,0 -6.383,-1.895 -6.383,-4.238 0,-1.541 1.247,-2.874 3.096,-3.615 V 0 c -17.845,-0.168 -31.839,-1.682 -32.072,-3.53 h -0.018 V -58.477 H 32.091 V -3.53 H 32.072 C 31.839,-1.682 17.841,-0.168 0,0" /></g><g
           transform="translate(437.0439,254.4746)"
           id="g50"><path
             id="path52"
             style="fill:#231f20;fill-opacity:1;fill-rule:nonzero;stroke:none"
             d="m 0,0 c -0.081,0.947 -4.838,1.723 -10.899,1.807 v 1.367 c 0.627,0.38 1.049,1.063 1.049,1.852 0,1.198 -0.97,2.168 -2.168,2.168 -1.199,0 -2.168,-0.97 -2.168,-2.168 0,-0.789 0.421,-1.472 1.049,-1.852 V 1.807 C -19.201,1.723 -23.955,0.947 -24.035,0 h -0.006 V -82.862 H 0.006 L 0.006,0 Z" /></g><g
           transform="translate(243.0298,388.2568)"
           id="g54"><path
             id="path56"
             style="fill:#231f20;fill-opacity:1;fill-rule:nonzero;stroke:none"
             d="m 0,0 h -9.25 l -3.364,-169.007 15.785,9.676 z" /></g><path
           id="path58"
           style="fill:#231f20;fill-opacity:1;fill-rule:nonzero;stroke:none"
           d="m 264.555,242.384 h 1.32 v -10.379 h -1.32 z m 0,10.865 h 1.32 v -10.375 h -1.32 z m 0,10.867 h 1.32 v -10.377 h -1.32 z m 0,10.867 h 1.32 v -10.377 h -1.32 z m 0,10.869 h 1.32 v -10.379 h -1.32 z m 0,10.865 h 1.32 V 286.34 h -1.32 z m 0,-75.577 v 10.377 h 1.32 v -9.655 l 7.142,4.375 v 72.211 h -7.142 v -1.243 h -1.32 v 1.243 h -0.522 v -77.716 l 0.669,0.408 z" /><g
           transform="translate(351.2998,235.9727)"
           id="g60"><path
             id="path62"
             style="fill:#231f20;fill-opacity:1;fill-rule:nonzero;stroke:none"
             d="m 0,0 v -19.124 l 19.925,12.211 -5.37,85.844 H 0.152 L -4.973,-3.05 Z" /></g><g
           transform="translate(265.8755,221.1396)"
           id="g64"><path
             id="path66"
             style="fill:#231f20;fill-opacity:1;fill-rule:nonzero;stroke:none"
             d="M 0,0 V 0.723 L -1.174,0 Z" /></g><path
           id="path68"
           style="fill:#231f20;fill-opacity:1;fill-rule:nonzero;stroke:none"
           d="m 373.847,193.145 h -41.453 v 4.493 h 41.453 z m 0,-7.495 h -41.453 v 4.495 h 41.453 z m 0,-7.491 h -41.453 v 4.495 h 41.453 z m -52.69,14.986 H 279.7 v 4.493 h 41.457 z m 0,-7.495 H 279.7 v 4.495 h 41.457 z m 0,-7.491 H 279.7 v 4.495 h 41.457 z m -52.691,14.986 h -41.455 v 4.493 h 41.455 z m 0,-7.495 h -41.455 v 4.495 h 41.455 z m 0,-7.491 h -41.455 v 4.495 h 41.455 z m 81.739,55.859 -31.199,-19.125 v 19.125 l -31.202,-19.125 v 19.125 l -31.201,-19.125 v 19.125 l -37.148,-22.772 v -39.634 h 14.777 2.897 11.257 8.217 22.984 8.217 31.202 31.199 31.201 v 62.406 l -31.201,-19.125 z" /><g
           transform="translate(288.8979,216.8486)"
           id="g70"><path
             id="path72"
             style="fill:#231f20;fill-opacity:1;fill-rule:nonzero;stroke:none"
             d="M 0,0 31.204,19.124 V 0 l 25.084,15.377 3.763,60.208 H -8.583 V 13.863 L 0,19.124 Z" /></g><g
           transform="translate(183.1997,378.1328)"
           id="g74"><path
             id="path76"
             style="fill:none;stroke:#bf1b2c;stroke-width:5.66900015;stroke-linecap:butt;stroke-linejoin:miter;stroke-miterlimit:10;stroke-dasharray:none;stroke-opacity:1"
             d="M 0,0 221.833,-221.83" /></g><g
           transform="translate(188.4395,154.2979)"
           id="g78"><path
             id="path80"
             style="fill:none;stroke:#bf1b2c;stroke-width:5.66900015;stroke-linecap:butt;stroke-linejoin:miter;stroke-miterlimit:10;stroke-dasharray:none;stroke-opacity:1"
             d="M 0,0 221.831,221.832" /></g></g></g><text
       id="text84"
       style="font-variant:normal;font-weight:500;font-stretch:normal;font-size:45.56019974px;font-family:Futura;-inkscape-font-specification:Futura-Medium;writing-mode:lr-tb;fill:#231f20;fill-opacity:1;fill-rule:nonzero;stroke:none"
       transform="matrix(1,0,0,-1,165.0107,634.8892)"><tspan
         id="tspan82"
         y="0"
         x="0 20.183168 45.924683 84.286369 122.64806 148.38957 162.46767 190.57832 214.69333">LEGGE 231</tspan></text>
<g
       id="g86"><g
         clip-path="url(#clipPath92)"
         id="g88"><g
           transform="translate(114.6016,440.0405)"
           id="g94"><path
             id="path96"
             style="fill:#bf1b2c;fill-opacity:1;fill-rule:nonzero;stroke:none"
             d="m 0,0 c 2.507,3.52 4.435,6.708 2.641,11.161 -1.486,3.689 -2.19,7.695 -3.282,11.714 -0.758,-0.817 -1.306,-1.408 -1.855,-1.999 -0.161,0.061 -0.322,0.119 -0.484,0.177 2.118,3.258 1.402,6.501 0.249,9.739 -0.069,0.19 -0.123,0.388 -0.149,0.589 -0.285,2.171 0.162,4.218 2.112,5.332 1.748,0.998 2.754,2.46 3.755,4.051 0.638,1.01 1.373,1.96 2.063,2.941 -0.151,0.174 -0.301,0.348 -0.452,0.524 -2.301,-0.699 -4.692,-1.19 -6.883,-2.14 -4.396,-1.907 -6.972,-7.281 -5.816,-11.82 1.232,-4.834 2.559,-9.647 3.856,-14.464 0.293,-1.087 0.196,-2.493 1.995,-2.432 0.179,0.006 0.55,-0.852 0.552,-1.307 0.005,-1.484 -0.12,-2.969 -0.194,-4.44 C -1.231,7.321 -0.643,7.051 -0.054,6.781 -0.075,6.674 -0.094,6.566 -0.115,6.459 H -1.74 C -1.142,4.239 -0.601,2.229 0,0 m 19.049,-48.82 c 0.632,-0.562 1.014,-1.186 1.462,-1.239 0.989,-0.118 2.045,-0.092 3.014,0.135 3.015,0.702 6.006,1.509 8.998,2.307 11.581,3.086 23.16,6.181 34.738,9.283 1.582,0.422 3.151,0.894 4.725,1.341 -0.014,0.119 -0.028,0.241 -0.043,0.36 -1.041,0.177 -2.082,0.355 -3.123,0.533 0.027,0.09 0.055,0.181 0.082,0.269 3.452,0.75 6.904,1.501 10.357,2.25 0.245,-0.309 0.491,-0.62 0.736,-0.927 -0.534,0.015 -1.066,0.031 -1.599,0.048 0.134,-0.236 0.269,-0.471 0.402,-0.707 26.595,7.129 53.191,14.257 79.187,21.225 0.547,1.571 0.657,2.942 1.398,3.667 0.55,0.538 1.919,0.239 2.922,0.313 0.028,0.206 0.055,0.41 0.082,0.616 -1.093,0.375 -2.186,1.057 -3.275,1.051 -1.33,-0.013 -2.658,-0.586 -3.982,-0.94 -8.623,-2.309 -17.253,-4.598 -25.867,-6.944 -6.465,-1.76 -12.897,-3.632 -19.365,-5.379 -4.951,-1.337 -9.941,-2.525 -14.9,-3.837 -4.102,-1.084 -8.183,-2.251 -12.273,-3.381 0.085,-0.158 0.171,-0.317 0.257,-0.475 -0.518,-0.27 -1.02,-0.581 -1.561,-0.792 -0.372,-0.147 -0.8,-0.141 -1.2,-0.222 -0.554,-0.113 -1.102,-0.338 -1.657,-0.351 -0.866,-0.018 -1.798,0.336 -2.596,0.126 -11.463,-3.01 -22.909,-6.085 -34.359,-9.148 -5.546,-1.486 -11.088,-2.98 -16.112,-4.328 0.12,-1.567 0.219,-2.86 0.358,-4.691 -3.776,2.818 -7.173,5.322 -10.521,7.895 -0.303,0.233 -0.528,1.108 -0.347,1.344 1.116,1.453 0.337,2.835 -0.021,4.218 -0.947,3.671 -1.893,7.345 -2.958,10.984 -0.257,0.878 -1.262,1.567 -1.428,2.436 -0.692,3.613 -1.195,7.257 -1.741,10.719 -1.332,-0.329 -2.167,-0.603 -3.02,-0.678 -0.128,-0.012 -0.338,0.899 -0.509,1.385 0.878,0.158 1.757,0.318 2.826,0.51 C 7.561,-7.667 6.956,-5.375 6.21,-2.553 5.625,-3.524 5.29,-4.079 4.955,-4.635 4.729,-4.545 4.503,-4.454 4.277,-4.364 4.851,-1.771 6.444,0.864 3.919,3.859 3.388,2.417 2.967,1.287 2.56,0.154 2.453,-0.143 2.485,-0.606 2.289,-0.732 0.694,-1.734 0.809,-3.169 1.213,-4.682 c 2.289,-8.57 4.618,-17.131 6.861,-25.712 0.739,-2.831 1.206,-5.763 4.95,-6.108 0.018,-0.002 0.025,-0.12 0.078,-0.39 -1.111,0.13 -2.167,0.255 -3.311,0.39 0.292,-1.113 0.612,-2.204 0.861,-3.309 0.65,-2.882 1.531,-5.654 3.899,-7.636 1.395,-1.167 2.836,-2.391 4.498,-1.373 M 357.405,90.977 c -0.09,-0.071 -0.181,-0.142 -0.27,-0.212 0.201,-0.308 0.343,-0.693 0.615,-0.913 2.002,-1.61 2.093,-3.024 0.614,-5.209 -0.439,-0.651 -0.552,-1.781 -0.344,-2.57 2.48,-9.498 5.055,-18.972 7.597,-28.455 1.067,-3.981 -0.435,-6.614 -4.417,-7.681 -24.395,-6.541 -48.796,-13.059 -73.18,-19.637 -0.989,-0.267 -1.822,-1.093 -2.758,-1.601 -0.39,-0.21 -1.095,-0.518 -1.258,-0.363 -1.244,1.189 -2.407,0.175 -3.567,-0.055 -1.326,-0.262 -2.608,-0.894 -3.932,-0.975 -1.97,-0.123 -1.025,-2.024 -1.943,-2.954 -0.26,0.814 -0.453,1.423 -0.679,2.137 -6.811,-1.807 -13.517,-3.559 -20.196,-5.409 -0.632,-0.177 -1.087,-0.99 -1.384,-1.276 -1.331,0 -2.513,0.201 -3.599,-0.041 -2.867,-0.639 -5.696,-1.466 -8.535,-2.228 C 232.42,11.453 224.675,9.354 216.926,7.281 210.45,5.546 203.963,3.843 197.485,2.11 c -3.871,-1.035 -7.734,-2.1 -11.846,-3.219 0.901,-0.437 1.496,-0.723 2.093,-1.012 -0.059,-0.196 -0.123,-0.393 -0.182,-0.587 -0.788,0.13 -1.585,0.235 -2.367,0.402 -0.68,0.146 -1.419,0.652 -2.009,0.504 -5.319,-1.331 -10.618,-2.754 -15.908,-4.199 -0.658,-0.18 -1.204,-0.816 -1.863,-0.953 -1.413,-0.29 -2.866,-0.394 -4.828,-0.641 3.258,-2.147 3.334,-2.466 1.316,-5.321 1.869,0.52 3.303,0.921 4.737,1.317 8.008,2.203 16.019,4.388 24.014,6.639 0.629,0.178 1.083,1.085 1.692,1.18 1.571,0.242 3.347,-0.157 4.073,2.325 0.286,-0.9 0.433,-1.354 0.631,-1.979 5.523,1.484 10.911,2.934 16.491,4.436 -0.913,0.742 -1.438,1.169 -1.652,1.345 1.172,1.132 2.108,2.036 3.244,3.132 0.431,-0.536 1.007,-1.254 1.685,-2.096 -0.735,-0.376 -1.715,-0.876 -2.696,-1.375 0.117,-0.258 0.233,-0.514 0.348,-0.77 5.639,1.465 11.275,2.927 16.911,4.391 -0.015,0.139 -0.028,0.277 -0.044,0.413 h -3.184 c -0.016,0.164 -0.032,0.327 -0.049,0.491 1.793,0.449 3.589,0.895 5.383,1.342 0.101,-0.148 0.206,-0.299 0.305,-0.447 -0.502,-0.261 -1.008,-0.52 -1.513,-0.781 0.122,-0.212 0.241,-0.425 0.364,-0.638 5.692,1.52 11.384,3.041 17.076,4.561 0.022,0.223 0.041,0.447 0.063,0.67 -0.897,0.219 -1.792,0.438 -2.938,0.716 1.164,1.694 2.583,2.506 4.519,2.435 -0.1,-1.153 -0.188,-2.177 -0.312,-3.617 1.603,0.629 2.776,1.053 3.914,1.553 0.509,0.223 0.919,0.804 1.425,0.878 2.261,0.325 4.542,0.529 6.813,0.774 0.152,1.449 0.524,2.386 1.027,3.247 0.139,0.235 0.667,0.245 1.015,0.359 0.075,-0.359 0.263,-0.744 0.196,-1.076 -0.114,-0.55 -0.392,-1.064 -0.743,-1.951 1.319,0.374 2.146,0.608 2.692,0.763 -0.326,0.748 -0.6,1.366 -0.835,1.996 -0.008,0.016 0.403,0.186 0.62,0.286 0.175,-0.491 0.351,-0.981 0.637,-1.789 2.387,0.491 4.895,0.893 7.342,1.534 7.57,1.978 15.115,4.055 22.671,6.08 21.782,5.832 43.57,11.642 65.343,17.494 4.48,1.205 7.326,4.14 8.003,8.745 0.596,4.048 -0.71,7.808 -2.566,11.384 -0.274,0.525 -0.407,1.151 -0.475,1.744 -0.058,0.534 0.302,1.257 0.06,1.603 -1.128,1.618 -0.86,3.566 -1.436,5.297 -0.776,2.343 -0.467,5.117 -2.49,6.727 0.064,0.896 0.289,1.661 0.135,2.341 -0.459,2.047 -0.989,4.086 -1.644,6.077 -0.449,1.367 -0.909,2.861 -1.816,3.907 -0.871,1.006 -2.325,1.507 -3.522,2.23 M 67.41,44.563 C 70.665,32.387 73.842,20.484 77.043,8.589 77.151,8.192 77.439,7.796 77.746,7.507 78.552,6.752 79.415,6.058 80.581,5.059 78.215,4.451 78.336,3.321 78.792,1.926 c 0.588,-1.797 1.013,-3.651 1.506,-5.48 1.229,-4.556 2.456,-9.112 3.775,-14.001 14.417,3.789 28.638,7.525 42.977,11.293 -1.411,5.244 -2.725,10.133 -4.093,15.218 C 122.029,8.773 121.243,8.663 120.481,8.459 113.218,6.53 105.946,4.633 98.71,2.605 97.12,2.159 96.585,2.545 96.184,4.076 93.3,15.078 90.34,26.062 87.391,37.046 86.327,41.015 85.226,44.971 84.1,49.084 78.445,47.554 73.043,46.089 67.41,44.563 M 51.87,17.397 c -0.281,1.057 -0.467,1.758 -0.654,2.462 0.802,-0.038 1.606,-0.045 2.404,-0.12 0.641,-0.058 1.425,-0.493 1.885,-0.254 2.688,1.389 5.298,2.928 8.241,4.591 -1.915,2.486 -3.649,4.739 -5.383,6.991 -0.147,-0.084 -0.292,-0.165 -0.439,-0.249 0.041,-0.567 0.082,-1.134 0.114,-1.574 -0.636,0.263 -1.251,0.762 -1.795,0.695 -1.486,-0.189 -2.058,0.694 -2.136,1.814 -0.043,0.605 0.622,1.259 1.076,2.088 -1.418,0.816 -3.087,1.777 -5.006,2.882 0.179,-0.883 0.281,-1.392 0.383,-1.898 -0.138,-0.091 -0.276,-0.184 -0.415,-0.275 -0.306,0.331 -0.871,0.661 -0.875,0.996 -0.018,1.503 -1.033,1.683 -2.149,1.909 -4.918,1.002 -9.722,0.339 -14.454,-1.028 C 22.752,33.562 16,27.51 13.579,17.194 12.246,11.516 13.008,5.895 14.023,0.269 c 0.403,-2.227 0.71,-4.363 3.82,-3.785 0.058,0.013 0.153,-0.177 0.486,-0.585 -1.059,-0.21 -1.946,-0.386 -3.081,-0.609 0.791,-2.112 1.434,-4.173 2.315,-6.127 3.588,-7.957 8.929,-14.238 17.411,-17.198 5.331,-1.861 10.719,-0.945 16.038,0.318 9.783,2.329 16.541,7.855 18.753,18.039 0.744,3.427 1.367,6.902 -0.688,10.212 -1.78,0.16 -3.665,0.352 -5.556,0.497 -1.854,0.143 -3.714,0.239 -5.84,0.37 0.958,-0.741 1.679,-1.299 2.402,-1.857 -0.119,-0.157 -0.236,-0.315 -0.355,-0.474 -1.602,0.9 -3.204,1.797 -5.31,2.982 0,-2.225 0.083,-3.771 -0.014,-5.307 -0.362,-5.716 -3,-9.07 -7.928,-10.193 -4.902,-1.117 -8.748,0.782 -11.428,5.906 -1.123,2.147 -2.042,4.438 -2.748,6.756 -1.501,4.929 -2.968,9.906 -1.873,15.159 1.421,6.815 8.574,10.483 14.317,7.143 2.028,-1.18 3.586,-3.169 5.572,-4.983 0.345,0.191 1.037,0.576 1.554,0.864 M 2.574,38.022 c 4.985,1.414 9.577,2.773 14.202,4.014 7.163,1.919 14.362,3.708 21.522,5.637 6.534,1.76 13.024,3.681 19.559,5.436 4.487,1.207 9.033,2.191 13.524,3.377 8.644,2.282 17.252,4.702 25.911,6.924 2.605,0.669 4.584,1.891 6.032,4.248 -0.184,-0.852 -0.366,-1.705 -0.567,-2.637 0.265,0.029 0.531,0.026 0.778,0.092 10.337,2.765 20.672,5.537 31.007,8.305 27.015,7.239 54.032,14.479 81.051,21.709 25.906,6.933 51.818,13.851 77.724,20.787 15.37,4.116 30.731,8.266 46.102,12.375 3.633,0.97 6.222,-0.558 7.275,-4.233 0.785,-2.734 1.388,-5.524 2.255,-8.228 2.475,-7.713 3.115,-16.021 7.331,-23.149 2.295,0.493 2.156,1.623 1.093,2.831 1.084,1.547 1.647,3.026 1.179,4.785 -1.079,4.055 -2.145,8.115 -3.219,12.171 -0.515,1.938 -1.037,3.875 -1.532,5.728 h -3.151 c -0.15,0.155 -0.299,0.311 -0.449,0.467 3.468,0.877 2.935,2.985 2.113,5.204 -0.48,1.297 -0.936,2.604 -1.367,3.918 -1.239,3.775 -7.647,7.455 -12.447,5.799 -2.096,-0.724 -4.149,-1.611 -6.292,-2.157 -3.917,-1.001 -7.914,-1.702 -11.821,-2.737 -1.885,-0.498 -3.64,-1.483 -5.466,-2.219 -0.281,-0.112 -0.628,-0.09 -0.944,-0.083 -0.68,0.014 -1.395,0.209 -2.033,0.062 -2.045,-0.467 -4.061,-1.053 -6.089,-1.597 -25.704,-6.898 -51.402,-13.818 -77.124,-20.647 -1.661,-0.441 -2.696,-0.981 -2.573,-2.488 -1.929,-0.252 -3.719,-0.485 -5.555,-0.725 v 0.986 c -2.979,-0.782 -5.861,-1.502 -8.717,-2.32 -0.535,-0.153 -0.961,-0.692 -1.417,-1.036 -1.56,-0.204 -3.278,-0.244 -4.896,-0.665 -9.894,-2.581 -19.768,-5.245 -29.648,-7.888 -15.298,-4.092 -30.598,-8.181 -45.89,-12.3 -1.588,-0.428 -3.125,-1.049 -4.595,-1.551 0.176,-0.729 0.313,-1.304 0.513,-2.132 -1.953,0.191 -3.622,3.963 -4.866,0.388 -0.877,0.122 -1.569,0.415 -2.147,0.265 -5.435,-1.392 -10.849,-2.861 -16.269,-4.305 C 98.359,69.282 94.044,68.141 89.733,66.985 78.104,63.87 66.473,60.768 54.854,57.617 52.128,56.876 49.45,55.96 46.756,55.105 46.61,55.059 46.522,54.827 46.396,54.668 46.819,54.305 47.196,53.981 47.781,53.48 46.876,53.15 46.217,52.908 45.59,52.679 45.429,53.35 45.315,53.822 45.2,54.298 44.662,54.143 44.031,54.115 43.603,53.804 42.546,53.043 41.626,52.06 40.234,53.26 40.02,53.445 39.449,53.288 39.067,53.194 37.435,52.787 35.813,52.339 34.186,51.912 26.144,49.8 18.094,47.708 10.062,45.557 8.693,45.191 6.994,44.919 6.149,43.978 4.744,42.407 3.905,40.327 2.574,38.022 m 218.058,29.221 c 0.286,-0.094 0.957,-0.57 1.475,-0.438 1.701,0.431 3.366,1.03 5.003,1.669 1.31,0.509 1.908,1.407 1.096,2.816 -1.311,2.275 -2.928,4.291 -4.553,6.354 -3.422,4.342 -7.801,5.164 -12.675,5.328 -5.037,0.167 -9.775,-1.248 -14.44,-2.95 -7.889,-2.877 -14.476,-9.701 -13.361,-19.27 0.724,-6.178 3.046,-11.33 8.806,-14.377 3.959,-2.094 8.276,-2.695 12.681,-2.957 4.245,-0.249 8.515,-0.387 12.712,-1.003 2.695,-0.398 4.301,-2.462 4.682,-5.237 0.364,-2.674 -1.032,-5.244 -3.473,-6.598 -4.896,-2.715 -10.102,-1.344 -13.005,3.459 -0.685,1.135 -1.276,2.329 -1.939,3.551 -5.216,-1.81 -10.253,-3.557 -15.598,-5.414 0.973,-2.03 1.697,-3.931 2.738,-5.637 3.201,-5.243 7.213,-9.529 13.696,-10.514 7.739,-1.175 15.029,0.723 21.847,4.038 10.325,5.021 14.467,15.722 10.655,26.554 -0.727,2.071 -1.941,3.972 -3.143,6.373 -1.995,-5.164 -3.43,-6.31 -5.026,-4.34 2.303,1.465 0.374,3.473 0.825,5.322 0.438,-0.979 0.877,-1.959 1.427,-3.191 0.645,0.953 1.237,1.828 1.811,2.672 -2.608,3.899 -6.982,4.542 -10.884,5.672 -3.058,0.887 -6.429,0.788 -9.67,0.914 -3.108,0.121 -6.23,-0.133 -9.341,-0.031 -2.055,0.068 -3.57,1.24 -4.285,3.199 -0.635,1.744 0.124,3.944 1.615,5.11 3.621,2.835 8.823,2.201 11.578,-1.415 0.711,-0.931 1.276,-2.468 2.146,-2.66 1.084,-0.241 2.413,0.62 3.636,1.007 0.261,0.083 0.556,0.116 0.767,0.268 0.694,0.507 1.357,1.06 2.197,1.726 m 40.462,-9.293 c 8.858,2.392 17.432,4.707 26.092,7.045 -1.187,4.392 -2.278,8.43 -3.414,12.636 -8.78,-2.335 -17.376,-4.621 -26.103,-6.942 -0.914,3.425 -1.76,6.594 -2.638,9.895 9.499,2.561 18.749,5.054 28.109,7.575 -1.053,3.944 -2.08,7.588 -2.976,11.266 -0.36,1.491 -0.846,1.943 -2.493,1.492 -12.02,-3.294 -24.059,-6.513 -36.121,-9.637 -1.922,-0.498 -2.942,-1.196 -2.349,-3.137 -1.44,0.365 -2.844,0.721 -4.521,1.145 1.347,-5.038 2.651,-9.911 3.977,-14.859 0.921,0.17 2.007,0.042 2.405,0.503 1.778,2.071 2.008,0.418 2.694,-1.05 -0.965,0.098 -1.677,0.17 -2.28,0.231 -0.749,-0.646 -1.441,-1.241 -2.22,-1.913 3.999,-14.916 8.023,-29.931 12.098,-45.125 15.375,4.122 30.503,8.177 45.724,12.256 -1.133,4.254 -2.165,8.174 -3.224,12.087 -0.371,1.371 -1.271,1.733 -2.617,1.369 -2.867,-0.778 -5.757,-1.478 -8.63,-2.237 -5.499,-1.457 -10.993,-2.932 -16.492,-4.391 -0.829,-0.221 -1.72,-0.698 -2.077,0.694 -0.927,3.601 -1.904,7.186 -2.944,11.097" /></g><g
           transform="translate(281.2007,450.8027)"
           id="g98"><path
             id="path100"
             style="fill:#bf1b2c;fill-opacity:1;fill-rule:evenodd;stroke:none"
             d="M 0,0 C -0.104,0.237 -0.207,0.474 -0.31,0.713 -1.441,0.141 -2.573,-0.431 -3.987,-1.144 -1.69,-2.517 -0.925,-1.065 0,0 m -29.333,49.596 c -0.181,0.011 -0.362,0.022 -0.544,0.033 -0.711,-0.76 -1.304,-1.714 -2.158,-2.24 -1.333,-0.816 -1.327,-1.937 -0.603,-2.825 0.531,-0.651 1.697,-0.786 2.579,-1.15 0.096,0.256 0.193,0.513 0.288,0.769 -0.681,0.295 -1.361,0.588 -2.128,0.92 0.769,0.906 0.227,2.675 2.128,2.777 0.176,0.01 0.294,1.118 0.438,1.716 m 4.64,-10.495 c -1.102,-2.344 -2.826,-4.581 -3.181,-7.017 -1.176,-8.068 1.023,-15.56 5.271,-22.397 2.796,-4.5 7.399,-6.004 12.347,-4.502 4.833,1.465 7.616,5.198 7.544,10.551 -0.084,6.383 -1.472,12.543 -4.518,18.155 -1.15,2.117 -3.166,3.788 -4.903,5.549 -0.91,0.921 -2.648,0.819 -3.148,2.389 -0.032,0.094 -0.868,0.141 -1.048,-0.054 -1.163,-1.254 -2.733,-0.99 -3.72,-0.339 -0.676,0.444 -0.588,2.048 -0.905,3.407 -0.265,-0.043 -1.069,0.053 -1.432,-0.303 -0.266,-0.259 0.048,-1.112 0.115,-1.832 -1.471,-0.604 -3.085,-1.269 -4.696,-1.931 0.352,-1.448 0.352,-1.448 2.274,-1.676 m -4.051,14.417 c 0.629,-0.895 1.04,-1.51 1.509,-2.079 0.027,-0.032 0.766,0.35 0.749,0.484 -0.091,0.707 -0.318,1.399 -0.545,2.285 7.373,2.438 15.09,3.217 22.469,-0.142 C 1.402,51.353 5.9,46.653 8.778,40.622 12.263,33.315 14.363,25.651 14.42,17.521 14.518,3.896 6.91,-5.903 -6.317,-9.204 c -2.359,-0.587 -4.775,-1.068 -7.193,-1.278 -10.91,-0.956 -19.128,3.73 -24.662,12.831 -5.784,9.516 -8.479,19.973 -6.77,31.137 1.496,9.772 7.173,16.421 16.198,20.032" /></g><g
           transform="translate(465.1611,510.5723)"
           id="g102"><path
             id="path104"
             style="fill:#bf1b2c;fill-opacity:1;fill-rule:evenodd;stroke:none"
             d="M 0,0 C -0.122,0.251 -0.245,0.501 -0.367,0.752 -1.497,0.15 -2.624,-0.452 -3.99,-1.182 -1.701,-2.583 -0.941,-1.076 0,0 m -23.348,39.07 c -0.185,2.16 -1.032,2.466 -3.679,1.645 0.258,-2.755 2.297,-1.1 3.679,-1.645 m -6.332,-50.119 c 0.136,2.743 -1.755,1.929 -2.95,2.047 -0.253,0.024 -0.965,-1.025 -0.842,-1.341 0.865,-2.26 2.448,-0.414 3.792,-0.706 m -6.114,2.534 c -1.741,0.97 -3.004,1.674 -4.268,2.378 -0.163,-0.49 -0.586,-1.302 -0.447,-1.416 0.979,-0.789 2.05,-1.468 3.152,-2.075 0.147,-0.082 0.624,0.428 1.563,1.113 m 5.645,-4.054 c 1.601,-2.002 3.503,-1.352 5.192,1.663 -0.586,0.463 -1.188,0.94 -1.603,1.267 -1.306,-1.066 -2.397,-1.957 -3.589,-2.93 m 8.655,36.243 c -0.785,0.65 -1.203,1.11 -1.716,1.402 -1.384,0.786 -2.832,2.158 -4.21,2.105 -2.769,-0.107 -5.507,-1.037 -8.268,-1.566 -1.548,-0.297 -1.874,-0.945 -1.424,-2.534 2.059,-7.299 3.966,-14.64 5.92,-21.966 0.549,-2.066 1.068,-4.139 1.621,-6.293 -1.252,0.065 -2.209,0.115 -3.165,0.165 1.206,-1.266 2.398,-2.003 3.623,-2.684 0.731,-0.407 1.608,-1.157 2.257,-1.015 3.491,0.774 6.969,1.783 9.638,4.319 0.875,0.832 1.644,2.168 1.75,3.337 0.239,2.665 0.261,5.398 -0.045,8.053 -0.347,3.003 -1.15,5.953 -1.824,9.259 0.05,0.101 0.612,0.697 0.548,1.211 -0.232,1.807 0.118,3.875 -1.899,5.073 -0.273,0.161 -0.332,0.842 -0.329,1.28 0.015,1.118 0.119,2.233 0.209,3.717 0.851,-0.088 1.737,-0.246 2.624,-0.246 0.47,0 1.295,0.201 1.342,0.439 0.119,0.577 0.057,1.341 -0.252,1.829 -0.628,0.991 -1.466,1.849 -2.042,2.552 -0.9,0 -1.95,-0.324 -2.477,0.062 -1.49,1.094 -2.83,0.01 -4.325,0.194 1.373,-1.042 1.463,-2.132 1.306,-3.678 -0.148,-1.493 0.655,-3.083 1.138,-5.015 m 6.875,13.858 c 0.234,0.523 0.469,1.045 0.848,1.901 1.124,-1.296 3.004,-1.585 3.035,-3.712 0.006,-0.379 0.744,-1.11 1.031,-1.059 1.638,0.299 2.093,-0.997 2.739,-1.92 C -1.667,25.166 0.72,16.541 2.002,7.53 2.016,7.426 1.912,7.305 1.825,7.107 1.252,7.36 0.684,7.61 0.07,7.879 0.028,7.595 -0.014,7.364 -0.005,7.363 2.441,6.798 2.537,4.933 2.359,2.988 2.176,0.968 1.969,-1.06 1.588,-3.049 1.46,-3.72 0.769,-4.283 0.064,-5.275 c 0.555,-2.309 -0.87,-4.469 -2.441,-6.601 -4.666,-6.334 -11.604,-8.503 -18.751,-10.34 -5.887,-1.513 -11.75,-3.125 -17.624,-4.686 -0.833,-0.221 -1.675,-0.403 -2.639,-0.631 -5.593,20.733 -11.141,41.293 -16.758,62.101 1.264,0.375 2.397,0.746 3.547,1.049 8.248,2.174 16.481,4.421 24.762,6.46 4.23,1.041 8.469,0.761 12.578,-0.893 1.657,-0.667 3.241,-1.235 2.643,-3.652" /></g><g
           transform="translate(362.208,516.0908)"
           id="g106"><path
             id="path108"
             style="fill:#bf1b2c;fill-opacity:1;fill-rule:evenodd;stroke:none"
             d="M 0,0 C -0.75,0.334 -1.2,0.711 -1.437,0.606 -2.027,0.35 -2.517,-0.13 -3.047,-0.52 -2.723,-0.896 -2.199,-1.638 -2.108,-1.588 -1.465,-1.236 -0.91,-0.721 0,0 m 13.487,-18.101 c 1.04,-3.91 2.018,-7.495 2.945,-11.096 0.356,-1.392 1.248,-0.915 2.077,-0.695 5.499,1.46 10.993,2.935 16.492,4.392 2.873,0.758 5.763,1.459 8.63,2.237 1.346,0.364 2.246,0.001 2.617,-1.369 1.059,-3.913 2.091,-7.833 3.224,-12.088 -15.221,-4.078 -30.349,-8.133 -45.725,-12.256 -4.074,15.194 -8.099,30.209 -12.098,45.126 0.78,0.671 1.471,1.267 2.22,1.913 0.604,-0.062 1.316,-0.133 2.28,-0.231 -0.685,1.467 -0.916,3.121 -2.694,1.05 -0.397,-0.461 -1.483,-0.333 -2.404,-0.504 -1.326,4.949 -2.63,9.821 -3.978,14.86 1.678,-0.425 3.081,-0.78 4.522,-1.146 -0.593,1.942 0.426,2.64 2.348,3.138 12.063,3.124 24.102,6.342 36.121,9.636 1.648,0.452 2.133,-0.001 2.494,-1.491 0.895,-3.679 1.922,-7.323 2.975,-11.267 C 26.174,9.587 16.924,7.094 7.425,4.534 c 0.878,-3.302 1.723,-6.471 2.638,-9.895 8.727,2.321 17.323,4.607 26.103,6.942 1.136,-4.206 2.227,-8.244 3.413,-12.637 -8.659,-2.338 -17.233,-4.652 -26.092,-7.045" /></g><g
           transform="translate(346.3623,482.1929)"
           id="g110"><path
             id="path112"
             style="fill:#bf1b2c;fill-opacity:1;fill-rule:evenodd;stroke:none"
             d="m 0,0 c -1.553,0.305 -2.541,0.418 -3.48,0.698 -2.054,0.615 -2.179,0.521 -1.884,-1.348 0.87,-0.248 1.982,-0.277 2.115,-0.652 0.578,-1.62 1.008,-3.116 3.277,-2.484 0.192,0.053 0.578,-0.6 0.876,-0.924 C 1.053,-4.653 1.2,-4.597 1.35,-4.541 0.835,-2.817 0.323,-1.093 0,0 M -5.93,4.462 C -6.951,4.669 -7.976,4.878 -8.996,5.085 -9.053,4.798 -9.112,4.512 -9.169,4.225 -5.687,3.119 -2.206,2.013 1.273,0.907 1.386,1.164 1.495,1.42 1.605,1.678 c -0.93,0.374 -1.85,0.77 -2.792,1.115 -1.584,0.582 -3.187,1.128 -4.784,1.691 -0.132,1.961 -0.26,3.921 -0.392,5.882 -0.289,-0.041 -0.578,-0.078 -0.867,-0.119 0.251,-1.958 -1.048,-4.164 1.3,-5.785 m -5.199,20.628 c -0.84,-0.665 -1.503,-1.218 -2.197,-1.726 -0.211,-0.151 -0.506,-0.185 -0.767,-0.267 -1.222,-0.387 -2.552,-1.248 -3.636,-1.008 -0.87,0.192 -1.435,1.729 -2.146,2.661 -2.755,3.615 -7.957,4.25 -11.578,1.415 -1.49,-1.166 -2.25,-3.366 -1.614,-5.111 0.714,-1.959 2.229,-3.13 4.284,-3.198 3.111,-0.103 6.233,0.152 9.342,0.031 3.24,-0.127 6.611,-0.028 9.67,-0.914 C -5.87,15.842 -1.496,15.2 1.112,11.301 0.538,10.457 -0.054,9.582 -0.699,8.628 -1.249,9.86 -1.687,10.84 -2.126,11.819 -2.577,9.97 -0.647,7.962 -2.951,6.498 -1.354,4.528 0.08,5.673 2.075,10.837 3.277,8.437 4.491,6.536 5.219,4.465 9.03,-6.368 4.889,-17.068 -5.437,-22.089 c -6.818,-3.315 -14.108,-5.213 -21.847,-4.038 -6.483,0.985 -10.494,5.271 -13.695,10.514 -1.042,1.706 -1.766,3.607 -2.739,5.636 5.345,1.858 10.382,3.605 15.598,5.415 0.663,-1.223 1.254,-2.417 1.939,-3.551 2.904,-4.803 8.11,-6.175 13.005,-3.46 2.442,1.355 3.837,3.925 3.473,6.599 -0.381,2.774 -1.986,4.839 -4.682,5.236 -4.197,0.616 -8.467,0.755 -12.712,1.004 -4.405,0.261 -8.721,0.863 -12.68,2.957 -5.761,3.047 -8.083,8.199 -8.806,14.377 -1.116,9.569 5.472,16.392 13.36,19.27 4.665,1.702 9.404,3.116 14.44,2.949 4.874,-0.163 9.254,-0.986 12.676,-5.327 1.625,-2.064 3.241,-4.079 4.552,-6.355 0.812,-1.408 0.214,-2.306 -1.095,-2.816 -1.638,-0.638 -3.303,-1.237 -5.003,-1.668 -0.519,-0.132 -1.19,0.344 -1.476,0.437" /></g><g
           transform="translate(166.5928,494.6973)"
           id="g114"><path
             id="path116"
             style="fill:#bf1b2c;fill-opacity:1;fill-rule:evenodd;stroke:none"
             d="M 0,0 C -0.049,0.297 -0.097,0.594 -0.147,0.891 -1.475,0.748 -2.802,0.603 -4.129,0.46 -4.091,0.142 -4.053,-0.177 -4.015,-0.495 -2.676,-0.33 -1.338,-0.166 0,0 m -49.417,-16.635 c 1.331,2.305 2.17,4.385 3.575,5.956 0.844,0.941 2.544,1.213 3.913,1.579 8.032,2.151 16.081,4.244 24.123,6.355 1.628,0.428 3.25,0.875 4.882,1.282 0.382,0.094 0.952,0.252 1.167,0.066 1.392,-1.2 2.312,-0.217 3.368,0.544 0.429,0.311 1.06,0.339 1.598,0.495 0.115,-0.476 0.229,-0.949 0.39,-1.62 0.627,0.229 1.286,0.471 2.191,0.801 -0.585,0.501 -0.962,0.825 -1.385,1.189 0.126,0.158 0.214,0.39 0.36,0.436 2.694,0.855 5.372,1.771 8.098,2.512 11.618,3.151 23.25,6.253 34.879,9.368 4.311,1.156 8.626,2.297 12.938,3.448 5.42,1.445 10.834,2.913 16.269,4.306 0.578,0.149 1.27,-0.144 2.147,-0.266 1.243,3.576 2.912,-0.196 4.865,-0.387 -0.199,0.827 -0.336,1.403 -0.512,2.132 1.469,0.501 3.007,1.122 4.594,1.55 15.292,4.119 30.593,8.208 45.891,12.301 9.879,2.642 19.753,5.306 29.648,7.887 1.618,0.422 3.336,0.462 4.896,0.665 0.456,0.345 0.881,0.883 1.417,1.036 2.856,0.818 5.738,1.539 8.716,2.32 v -0.986 c 1.837,0.241 3.626,0.473 5.556,0.726 -0.123,1.506 0.912,2.046 2.573,2.487 25.722,6.829 51.42,13.749 77.124,20.647 2.028,0.544 4.044,1.131 6.089,1.598 0.638,0.146 1.353,-0.048 2.032,-0.063 0.317,-0.007 0.663,-0.029 0.945,0.084 1.826,0.735 3.581,1.72 5.466,2.219 3.907,1.034 7.904,1.735 11.821,2.736 2.142,0.546 4.196,1.434 6.292,2.157 4.8,1.657 11.208,-2.024 12.447,-5.799 0.431,-1.314 0.887,-2.621 1.367,-3.918 0.822,-2.219 1.355,-4.327 -2.113,-5.204 0.149,-0.156 0.299,-0.312 0.449,-0.466 h 3.151 c 0.495,-1.853 1.017,-3.79 1.532,-5.728 1.074,-4.057 2.139,-8.117 3.219,-12.172 0.467,-1.759 -0.095,-3.238 -1.179,-4.784 1.062,-1.208 1.202,-2.339 -1.093,-2.832 -4.216,7.128 -4.856,15.436 -7.331,23.149 -0.867,2.704 -1.471,5.494 -2.255,8.228 -1.054,3.675 -3.642,5.203 -7.275,4.233 C 272.057,69.523 256.695,65.373 241.326,61.257 215.42,54.321 189.508,47.403 163.602,40.47 136.583,33.24 109.566,26 82.55,18.762 72.215,15.994 61.88,13.221 51.543,10.456 51.296,10.39 51.031,10.394 50.766,10.364 c 0.201,0.932 0.383,1.785 0.567,2.637 C 49.885,10.644 47.906,9.422 45.3,8.753 36.642,6.531 28.034,4.111 19.39,1.83 14.898,0.643 10.353,-0.341 5.866,-1.548 -0.669,-3.303 -7.16,-5.224 -13.693,-6.983 c -7.16,-1.93 -14.359,-3.719 -21.522,-5.638 -4.625,-1.241 -9.218,-2.6 -14.202,-4.014" /></g><g
           transform="translate(133.4092,435.8428)"
           id="g118"><path
             id="path120"
             style="fill:#bf1b2c;fill-opacity:1;fill-rule:evenodd;stroke:none"
             d="M 0,0 C 0.093,-0.179 0.184,-0.36 0.276,-0.541 1.334,-0.427 2.392,-0.317 3.45,-0.208 3.506,-0.03 3.562,0.147 3.617,0.325 3.141,0.625 2.589,1.248 2.204,1.156 1.422,0.977 0.729,0.408 0,0 M 33.062,21.595 C 32.545,21.307 31.854,20.922 31.508,20.73 29.522,22.545 27.964,24.534 25.936,25.714 20.194,29.054 13.04,25.386 11.62,18.57 10.524,13.318 11.991,8.341 13.492,3.412 c 0.707,-2.319 1.626,-4.609 2.748,-6.757 2.68,-5.123 6.527,-7.023 11.428,-5.905 4.929,1.123 7.566,4.477 7.928,10.192 0.097,1.537 0.015,3.083 0.015,5.308 2.106,-1.185 3.708,-2.082 5.309,-2.982 0.119,0.158 0.237,0.317 0.355,0.474 -0.722,0.558 -1.443,1.116 -2.401,1.857 2.126,-0.132 3.985,-0.227 5.84,-0.37 1.89,-0.145 3.776,-0.337 5.555,-0.497 2.056,-3.31 1.432,-6.786 0.689,-10.212 -2.213,-10.184 -8.97,-15.71 -18.754,-18.04 -5.318,-1.262 -10.707,-2.178 -16.037,-0.317 -8.483,2.96 -13.824,9.24 -17.411,17.197 -0.882,1.955 -1.525,4.016 -2.316,6.128 1.135,0.223 2.022,0.399 3.081,0.609 -0.333,0.407 -0.428,0.597 -0.486,0.585 -3.11,-0.578 -3.417,1.558 -3.819,3.784 -1.016,5.627 -1.778,11.248 -0.445,16.926 2.421,10.316 9.174,16.367 19.088,19.233 4.732,1.367 9.536,2.03 14.454,1.027 1.117,-0.226 2.131,-0.405 2.149,-1.908 0.004,-0.335 0.569,-0.665 0.875,-0.996 0.139,0.091 0.277,0.184 0.415,0.274 -0.102,0.506 -0.204,1.016 -0.382,1.898 1.918,-1.104 3.588,-2.066 5.005,-2.881 -0.454,-0.83 -1.118,-1.483 -1.076,-2.088 0.078,-1.12 0.651,-2.003 2.136,-1.814 0.544,0.067 1.159,-0.432 1.795,-0.695 -0.031,0.44 -0.072,1.007 -0.114,1.574 0.147,0.084 0.292,0.165 0.439,0.249 1.735,-2.252 3.468,-4.505 5.383,-6.992 -2.942,-1.662 -5.553,-3.202 -8.241,-4.59 -0.459,-0.239 -1.244,0.196 -1.885,0.254 -0.798,0.075 -1.602,0.082 -2.404,0.12 0.187,-0.704 0.373,-1.405 0.654,-2.462" /></g><g
           transform="translate(182.0112,484.603)"
           id="g122"><path
             id="path124"
             style="fill:#bf1b2c;fill-opacity:1;fill-rule:evenodd;stroke:none"
             d="m 0,0 c 5.633,1.527 11.035,2.991 16.69,4.521 1.126,-4.113 2.227,-8.068 3.291,-12.037 2.95,-10.985 5.91,-21.969 8.793,-32.971 0.402,-1.53 0.936,-1.917 2.527,-1.471 7.235,2.029 14.508,3.925 21.77,5.854 0.762,0.205 1.548,0.314 2.476,0.497 1.368,-5.084 2.682,-9.974 4.094,-15.218 -14.339,-3.767 -28.561,-7.503 -42.978,-11.293 -1.318,4.889 -2.546,9.446 -3.774,14.002 -0.493,1.828 -0.918,3.682 -1.507,5.48 -0.455,1.395 -0.576,2.525 1.789,3.133 -1.166,0.999 -2.028,1.693 -2.835,2.447 -0.307,0.289 -0.595,0.685 -0.702,1.083 C 6.432,-24.079 3.255,-12.176 0,0" /></g><g
           transform="translate(303.1865,434.8452)"
           id="g126"><path
             id="path128"
             style="fill:#bf1b2c;fill-opacity:1;fill-rule:evenodd;stroke:none"
             d="M 0,0 C 1.081,0.881 1.919,1.566 2.89,2.361 1.416,2.133 0.297,1.96 -0.969,1.764 -0.671,1.224 -0.4,0.73 0,0 m 168.82,96.172 c 1.197,-0.722 2.651,-1.224 3.522,-2.23 0.907,-1.046 1.367,-2.54 1.816,-3.906 0.655,-1.992 1.185,-4.031 1.644,-6.078 0.154,-0.68 -0.071,-1.445 -0.135,-2.341 2.023,-1.61 1.714,-4.384 2.49,-6.727 0.576,-1.73 0.308,-3.679 1.436,-5.297 0.242,-0.346 -0.118,-1.069 -0.06,-1.602 0.068,-0.594 0.201,-1.22 0.475,-1.745 1.856,-3.576 3.162,-7.335 2.566,-11.384 -0.677,-4.605 -3.523,-7.539 -8.003,-8.744 C 152.798,40.265 131.01,34.456 109.229,28.624 101.672,26.598 94.127,24.521 86.557,22.543 84.11,21.902 81.603,21.5 79.215,21.01 c -0.286,0.807 -0.462,1.298 -0.637,1.788 -0.217,-0.099 -0.628,-0.27 -0.62,-0.286 0.235,-0.63 0.509,-1.247 0.835,-1.995 -0.546,-0.156 -1.373,-0.39 -2.692,-0.764 0.351,0.888 0.629,1.402 0.743,1.952 0.067,0.331 -0.121,0.716 -0.196,1.076 C 76.3,22.666 75.772,22.657 75.633,22.421 75.13,21.56 74.758,20.624 74.606,19.175 72.335,18.93 70.054,18.726 67.793,18.4 c -0.506,-0.073 -0.916,-0.655 -1.425,-0.878 -1.138,-0.5 -2.311,-0.924 -3.914,-1.552 0.124,1.439 0.212,2.464 0.312,3.616 -1.936,0.071 -3.355,-0.741 -4.519,-2.435 1.146,-0.277 2.041,-0.496 2.938,-0.716 -0.022,-0.223 -0.041,-0.446 -0.063,-0.669 -5.692,-1.521 -11.384,-3.042 -17.076,-4.561 -0.123,0.212 -0.242,0.425 -0.364,0.638 0.506,0.261 1.011,0.52 1.513,0.781 -0.099,0.147 -0.204,0.298 -0.305,0.446 -1.794,-0.446 -3.59,-0.893 -5.383,-1.342 0.017,-0.164 0.033,-0.327 0.049,-0.49 h 3.184 c 0.016,-0.137 0.03,-0.275 0.044,-0.413 C 37.148,9.36 31.512,7.898 25.873,6.434 c -0.115,0.255 -0.231,0.512 -0.348,0.769 0.981,0.5 1.961,1 2.696,1.375 -0.678,0.842 -1.254,1.56 -1.685,2.096 C 25.4,9.579 24.464,8.674 23.292,7.542 23.506,7.367 24.031,6.939 24.944,6.198 19.364,4.696 13.976,3.246 8.453,1.761 8.255,2.386 8.108,2.84 7.822,3.741 7.096,1.258 5.32,1.657 3.749,1.416 3.14,1.32 2.686,0.413 2.057,0.235 c -7.995,-2.251 -16.006,-4.436 -24.014,-6.639 -1.434,-0.396 -2.868,-0.797 -4.737,-1.316 2.018,2.854 1.942,3.173 -1.316,5.321 1.962,0.247 3.415,0.35 4.828,0.641 0.659,0.136 1.205,0.773 1.863,0.952 5.29,1.445 10.589,2.869 15.908,4.2 0.59,0.147 1.329,-0.359 2.009,-0.505 0.782,-0.166 1.579,-0.272 2.367,-0.402 0.059,0.195 0.123,0.391 0.182,0.588 C -1.45,3.364 -2.045,3.649 -2.946,4.086 1.166,5.205 5.029,6.27 8.9,7.305 c 6.478,1.734 12.965,3.436 19.441,5.171 7.749,2.074 15.494,4.172 23.243,6.254 2.839,0.762 5.668,1.589 8.535,2.228 1.086,0.242 2.268,0.041 3.599,0.041 0.297,0.286 0.752,1.1 1.384,1.276 6.679,1.85 13.385,3.602 20.196,5.409 0.226,-0.713 0.419,-1.323 0.679,-2.137 0.919,0.931 -0.027,2.831 1.943,2.954 1.324,0.082 2.606,0.713 3.933,0.976 1.159,0.229 2.322,1.244 3.566,0.055 0.163,-0.156 0.868,0.152 1.258,0.363 0.936,0.507 1.769,1.334 2.758,1.601 24.384,6.578 48.785,13.096 73.18,19.636 3.982,1.067 5.484,3.701 4.417,7.681 -2.542,9.483 -5.117,18.957 -7.597,28.455 -0.208,0.79 -0.095,1.92 0.344,2.57 1.479,2.185 1.388,3.599 -0.614,5.209 -0.272,0.221 -0.414,0.605 -0.615,0.913 0.089,0.071 0.18,0.142 0.27,0.212" /></g><g
           transform="translate(195.4849,406.7051)"
           id="g130"><path
             id="path132"
             style="fill:#bf1b2c;fill-opacity:1;fill-rule:evenodd;stroke:none"
             d="M 0,0 C 1.416,0.437 2.517,0.776 3.915,1.207 3.485,1.876 3.061,2.536 2.778,2.976 1.767,1.892 1.042,1.117 0,0 m -61.834,-15.484 c -1.662,-1.019 -3.104,0.206 -4.499,1.373 -2.367,1.981 -3.248,4.754 -3.898,7.635 -0.249,1.106 -0.569,2.197 -0.861,3.309 1.144,-0.135 2.199,-0.26 3.31,-0.39 -0.052,0.271 -0.06,0.388 -0.077,0.39 -3.744,0.346 -4.211,3.277 -4.951,6.108 -2.242,8.581 -4.571,17.142 -6.86,25.713 -0.404,1.513 -0.519,2.947 1.076,3.95 0.196,0.125 0.163,0.588 0.27,0.886 0.408,1.132 0.829,2.262 1.36,3.704 2.525,-2.994 0.931,-5.629 0.358,-8.223 0.226,-0.09 0.452,-0.18 0.678,-0.27 0.335,0.556 0.67,1.111 1.255,2.082 0.746,-2.822 1.351,-5.115 1.925,-7.292 -1.068,-0.192 -1.947,-0.352 -2.826,-0.509 0.172,-0.487 0.382,-1.398 0.51,-1.386 0.853,0.076 1.688,0.349 3.02,0.679 0.545,-3.463 1.048,-7.107 1.74,-10.719 0.167,-0.869 1.172,-1.559 1.429,-2.437 1.065,-3.639 2.011,-7.312 2.958,-10.983 0.357,-1.383 1.137,-2.766 0.021,-4.219 -0.181,-0.235 0.044,-1.11 0.347,-1.344 3.347,-2.573 6.745,-5.077 10.521,-7.894 -0.139,1.831 -0.239,3.124 -0.359,4.69 5.025,1.349 10.567,2.843 16.113,4.328 11.449,3.064 22.896,6.138 34.359,9.149 0.798,0.21 1.729,-0.145 2.596,-0.126 0.554,0.012 1.103,0.237 1.657,0.35 0.399,0.081 0.828,0.076 1.2,0.222 0.541,0.212 1.043,0.522 1.561,0.792 -0.086,0.158 -0.172,0.317 -0.257,0.476 4.09,1.129 8.171,2.296 12.272,3.38 4.959,1.312 9.949,2.5 14.901,3.837 6.467,1.747 12.9,3.619 19.365,5.379 8.614,2.346 17.244,4.635 25.867,6.945 1.323,0.353 2.651,0.927 3.982,0.939 1.088,0.006 2.182,-0.675 3.275,-1.051 -0.027,-0.206 -0.055,-0.41 -0.082,-0.615 C 80.419,23.299 79.05,23.598 78.5,23.061 77.759,22.335 77.648,20.965 77.102,19.394 51.105,12.426 24.51,5.298 -2.085,-1.832 c -0.134,0.236 -0.269,0.472 -0.402,0.707 0.533,-0.017 1.065,-0.032 1.598,-0.048 -0.245,0.308 -0.49,0.618 -0.735,0.928 -3.453,-0.749 -6.905,-1.5 -10.357,-2.25 -0.027,-0.089 -0.055,-0.18 -0.082,-0.27 1.041,-0.177 2.082,-0.355 3.123,-0.533 0.014,-0.119 0.028,-0.24 0.043,-0.359 -1.575,-0.447 -3.144,-0.919 -4.725,-1.342 -11.578,-3.102 -23.157,-6.196 -34.738,-9.282 -2.993,-0.798 -5.984,-1.606 -8.998,-2.308 -0.969,-0.226 -2.026,-0.253 -3.014,-0.135 -0.448,0.053 -0.83,0.677 -1.462,1.24" /></g><g
           transform="translate(114.6016,440.0405)"
           id="g134"><path
             id="path136"
             style="fill:#bf1b2c;fill-opacity:1;fill-rule:evenodd;stroke:none"
             d="m 0,0 c -0.601,2.229 -1.142,4.239 -1.74,6.459 h 1.625 c 0.021,0.107 0.04,0.215 0.061,0.322 -0.589,0.27 -1.177,0.54 -1.838,0.845 0.074,1.471 0.199,2.956 0.194,4.44 -0.002,0.455 -0.373,1.313 -0.552,1.307 -1.799,-0.061 -1.702,1.345 -1.995,2.432 -1.297,4.817 -2.624,9.63 -3.856,14.464 -1.156,4.539 1.42,9.913 5.816,11.82 2.191,0.95 4.582,1.441 6.883,2.14 C 4.749,44.053 4.899,43.879 5.05,43.705 4.36,42.724 3.625,41.774 2.987,40.764 1.986,39.173 0.98,37.711 -0.768,36.713 c -1.95,-1.114 -2.397,-3.161 -2.112,-5.332 0.026,-0.201 0.08,-0.399 0.149,-0.589 1.153,-3.238 1.869,-6.481 -0.249,-9.739 0.162,-0.058 0.323,-0.116 0.484,-0.177 0.549,0.591 1.097,1.182 1.855,1.999 C 0.451,18.856 1.155,14.85 2.641,11.161 4.435,6.708 2.507,3.52 0,0" /></g><g
           transform="translate(251.8677,500.3984)"
           id="g138"><path
             id="path140"
             style="fill:#bf1b2c;fill-opacity:1;fill-rule:evenodd;stroke:none"
             d="m 0,0 c -0.144,-0.598 -0.262,-1.706 -0.438,-1.715 -1.901,-0.102 -1.359,-1.871 -2.128,-2.778 0.767,-0.332 1.447,-0.625 2.129,-0.92 -0.096,-0.256 -0.193,-0.513 -0.289,-0.769 -0.882,0.365 -2.048,0.499 -2.579,1.151 -0.724,0.887 -0.73,2.009 0.603,2.824 0.854,0.526 1.447,1.48 2.158,2.24 C -0.362,0.022 -0.181,0.011 0,0" /></g><g
           transform="translate(281.2007,450.8027)"
           id="g142"><path
             id="path144"
             style="fill:#bf1b2c;fill-opacity:1;fill-rule:evenodd;stroke:none"
             d="m 0,0 c -0.925,-1.065 -1.69,-2.517 -3.987,-1.144 1.414,0.713 2.546,1.285 3.677,1.857 C -0.207,0.474 -0.104,0.237 0,0" /></g><g
           transform="translate(432.2988,496.917)"
           id="g146"><path
             id="path148"
             style="fill:#bf1b2c;fill-opacity:1;fill-rule:evenodd;stroke:none"
             d="M 0,0 C 1.192,0.975 2.282,1.866 3.588,2.932 4.005,2.604 4.606,2.127 5.192,1.664 3.503,-1.351 1.601,-2 0,0" /></g><g
           transform="translate(426.6533,500.9727)"
           id="g150"><path
             id="path152"
             style="fill:#bf1b2c;fill-opacity:1;fill-rule:evenodd;stroke:none"
             d="m 0,0 c -0.939,-0.687 -1.415,-1.196 -1.562,-1.114 -1.1,0.608 -2.175,1.287 -3.152,2.076 -0.14,0.113 0.284,0.926 0.447,1.416 C -3.004,1.674 -1.738,0.97 0,0" /></g><g
           transform="translate(432.7705,498.437)"
           id="g154"><path
             id="path156"
             style="fill:#bf1b2c;fill-opacity:1;fill-rule:evenodd;stroke:none"
             d="m 0,0 c -1.347,0.292 -2.929,-1.552 -3.795,0.707 -0.121,0.317 0.59,1.365 0.844,1.34 C -1.755,1.931 0.132,2.743 0,0" /></g><g
           transform="translate(439.1016,548.5581)"
           id="g158"><path
             id="path160"
             style="fill:#bf1b2c;fill-opacity:1;fill-rule:evenodd;stroke:none"
             d="M 0,0 C -1.384,0.544 -3.422,-1.11 -3.68,1.645 -1.034,2.465 -0.187,2.159 0,0" /></g><g
           transform="translate(462.4492,509.4873)"
           id="g162"><path
             id="path164"
             style="fill:#bf1b2c;fill-opacity:1;fill-rule:evenodd;stroke:none"
             d="m 0,0 c -0.942,-1.075 -1.703,-2.583 -3.992,-1.182 1.367,0.73 2.495,1.332 3.623,1.934 C -0.246,0.501 -0.124,0.25 0,0" /></g><g
           transform="translate(362.208,516.0908)"
           id="g166"><path
             id="path168"
             style="fill:#bf1b2c;fill-opacity:1;fill-rule:evenodd;stroke:none"
             d="m 0,0 c -0.91,-0.721 -1.465,-1.236 -2.108,-1.588 -0.091,-0.05 -0.615,0.692 -0.939,1.068 0.53,0.39 1.02,0.87 1.61,1.126 C -1.2,0.711 -0.75,0.334 0,0" /></g><g
           transform="translate(346.3623,482.1929)"
           id="g170"><path
             id="path172"
             style="fill:#bf1b2c;fill-opacity:1;fill-rule:evenodd;stroke:none"
             d="M 0,0 C 0.323,-1.093 0.835,-2.817 1.35,-4.541 1.2,-4.597 1.053,-4.653 0.904,-4.71 0.606,-4.386 0.22,-3.733 0.028,-3.786 c -2.269,-0.632 -2.699,0.864 -3.277,2.484 -0.133,0.375 -1.245,0.404 -2.115,0.652 -0.295,1.869 -0.17,1.963 1.884,1.348 C -2.541,0.418 -1.553,0.305 0,0" /></g><g
           transform="translate(340.3936,486.6768)"
           id="g174"><path
             id="path176"
             style="fill:#bf1b2c;fill-opacity:1;fill-rule:evenodd;stroke:none"
             d="M 0,0 C 1.595,-0.562 3.197,-1.109 4.782,-1.69 5.724,-2.036 6.644,-2.432 7.574,-2.806 7.464,-3.063 7.354,-3.32 7.242,-3.577 3.763,-2.471 0.281,-1.365 -3.2,-0.259 c 0.056,0.287 0.116,0.573 0.173,0.861 1.02,-0.207 2.045,-0.416 3.066,-0.624 z" /></g><g
           transform="translate(340.4326,486.6548)"
           id="g178"><path
             id="path180"
             style="fill:#bf1b2c;fill-opacity:1;fill-rule:evenodd;stroke:none"
             d="m 0,0 c -2.349,1.622 -1.05,3.827 -1.301,5.785 0.289,0.041 0.578,0.078 0.867,0.119 0.132,-1.961 0.261,-3.921 0.395,-5.882 z" /></g><g
           transform="translate(166.5928,494.6973)"
           id="g182"><path
             id="path184"
             style="fill:#bf1b2c;fill-opacity:1;fill-rule:evenodd;stroke:none"
             d="m 0,0 c -1.338,-0.166 -2.676,-0.33 -4.015,-0.495 -0.038,0.318 -0.076,0.637 -0.114,0.955 1.327,0.143 2.654,0.288 3.982,0.431 C -0.097,0.594 -0.049,0.297 0,0" /></g><g
           transform="translate(133.4092,435.8428)"
           id="g186"><path
             id="path188"
             style="fill:#bf1b2c;fill-opacity:1;fill-rule:evenodd;stroke:none"
             d="M 0,0 C 0.729,0.408 1.422,0.977 2.204,1.156 2.589,1.248 3.141,0.625 3.617,0.325 3.562,0.147 3.506,-0.03 3.45,-0.208 2.392,-0.317 1.334,-0.427 0.276,-0.541 0.184,-0.36 0.093,-0.179 0,0" /></g><g
           transform="translate(303.1865,434.8452)"
           id="g190"><path
             id="path192"
             style="fill:#bf1b2c;fill-opacity:1;fill-rule:evenodd;stroke:none"
             d="M 0,0 C -0.4,0.73 -0.671,1.224 -0.969,1.764 0.297,1.96 1.416,2.133 2.89,2.361 1.919,1.566 1.081,0.881 0,0" /></g><g
           transform="translate(195.4849,406.7051)"
           id="g194"><path
             id="path196"
             style="fill:#bf1b2c;fill-opacity:1;fill-rule:evenodd;stroke:none"
             d="M 0,0 C 1.042,1.117 1.767,1.892 2.778,2.976 3.061,2.536 3.485,1.876 3.915,1.207 2.517,0.776 1.416,0.437 0,0" /></g></g></g></g></svg>