<?xml version="1.0" encoding="utf-8"?>
<!-- Generator: Adobe Illustrator 16.0.0, SVG Export Plug-In . SVG Version: 6.00 Build 0)  -->
<!DOCTYPE svg PUBLIC "-//W3C//DTD SVG 1.1//EN" "http://www.w3.org/Graphics/SVG/1.1/DTD/svg11.dtd">
<svg version="1.1" id="Livello_1" xmlns="http://www.w3.org/2000/svg" xmlns:xlink="http://www.w3.org/1999/xlink" x="0px" y="0px"
	 width="200px" height="100px" viewBox="0 0 1200 600" xml:space="preserve" >
	 <g>
		<path fill-rule="evenodd" clip-rule="evenodd" fill="#1C87C5" d="M250.144,574.12c-83.74,0-128.167-48.423-122.133-118.854H68.915
			c-12.426,84.424,37.324,143.529,135.045,143.529c77.492,0,167.766-37.173,244.245-94.664
			C384.476,547.115,312.673,574.12,250.144,574.12z"/>
		<path fill-rule="evenodd" clip-rule="evenodd" fill="#808285" d="M596.922,281.677c2.514-62.273-38.691-104.602-114.292-104.602
			c-64.796,0-140.274,31.109-204.195,79.139c53.255-35.93,113.305-58.549,165.563-58.549c63.722,0,100.242,33.595,102.46,84.011
			H596.922z"/>
		<path fill-rule="evenodd" clip-rule="evenodd" fill="#1C87C5" d="M470.68,138.203c-75.567,0-163.286,35.373-238.518,90.456
			l23.757,29.687c71.209-57.551,158.362-95.474,232.479-95.474c62.557,0,103.127,27.005,117.193,69.988
			C595.54,175.371,548.204,138.203,470.68,138.203z"/>
		<path fill-rule="evenodd" clip-rule="evenodd" fill="#808285" d="M245.967,539.325c-52.271,0-86.229-22.619-97.975-58.542
			c8.404,48.022,47.995,79.133,112.791,79.133c61.639,0,132.958-28.153,194.792-72.312l-20.246-24.118
			C376.726,509.335,306.2,539.325,245.967,539.325z"/>
	</g>
<text transform="matrix(1 0 0 1 41 443.7705)" fill="#1C87C5" font-family="'Arial'" font-weight="900" font-size="210.0863" letter-spacing="15">WPS 231</text>
<text transform="matrix(1 0 0 1 493.2227 510.0771)" fill="#808285" font-family="'Arial'" font-size="90" font-weight="700" letter-spacing="8">s. r. l.</text>
</svg>
